<svg width="24" height="24" viewBox="0 0 24 24" fill="none" xmlns="http://www.w3.org/2000/svg">
<path fill-rule="evenodd" clip-rule="evenodd" d="M5.25 6H18.75C19.1242 6 19.4772 6.09137 19.7876 6.25303L13.125 11.25C12.4583 11.75 11.5417 11.75 10.875 11.25L4.21237 6.25303C4.52284 6.09137 4.87575 6 5.25 6ZM3.00186 8.15765C3.00062 8.18828 3 8.21907 3 8.25V15.75C3 16.9926 4.00736 18 5.25 18H18.75C19.9926 18 21 16.9926 21 15.75V8.25C21 8.21907 20.9994 8.18828 20.9981 8.15765L14.475 13.05C13.0083 14.15 10.9917 14.15 9.525 13.05L3.00186 8.15765ZM0.75 8.25C0.75 5.76472 2.76472 3.75 5.25 3.75H18.75C21.2353 3.75 23.25 5.76472 23.25 8.25V15.75C23.25 18.2353 21.2353 20.25 18.75 20.25H5.25C2.76472 20.25 0.75 18.2353 0.75 15.75V8.25Z" fill="black"/>
</svg>
