<svg width="24" height="24" viewBox="0 0 24 24" fill="none" xmlns="http://www.w3.org/2000/svg">
<path fill-rule="evenodd" clip-rule="evenodd" d="M21.1865 14.7493C20.5737 13.9322 19.748 13.2993 18.7996 12.92L18.7514 12.9007C17.353 12.3414 15.7642 12.5515 14.5593 13.4552L14.0199 13.8597C13.7213 14.0836 13.3035 14.054 13.0396 13.79L10.2095 10.9599C9.94559 10.696 9.9159 10.2782 10.1398 9.97961L10.5444 9.44025C11.448 8.23536 11.6582 6.64651 11.0988 5.24812L11.0795 5.1999C10.7002 4.25158 10.0674 3.42584 9.25027 2.81302L8.96444 2.59865C8.047 1.91057 6.85037 1.71638 5.76242 2.07903L5.4784 2.1737C3.91793 2.69386 2.69343 3.91836 2.17328 5.47883C1.73327 6.79885 1.67884 8.21712 2.01631 9.567C2.65965 12.1404 3.99034 14.4908 5.86599 16.3664L7.63312 18.1335C9.50877 20.0092 11.8592 21.3399 14.4325 21.9832C15.7824 22.3207 17.2007 22.2663 18.5207 21.8263C20.0812 21.3061 21.3057 20.0816 21.8258 18.5211L21.9205 18.2371C22.2832 17.1492 22.089 15.9525 21.4009 15.0351L21.1865 14.7493ZM7.73827 4.82902L7.45243 4.61464C7.19654 4.42272 6.86277 4.36856 6.55932 4.46971L6.27529 4.56439C5.46731 4.83371 4.83329 5.46774 4.56396 6.27572C4.27552 7.14103 4.23982 8.07083 4.46107 8.95581C4.99365 11.0861 6.09525 13.0319 7.6479 14.5845L9.41503 16.3516C10.9677 17.9043 12.9134 19.0059 15.0437 19.5385C15.9287 19.7597 16.8585 19.724 17.7238 19.4356C18.5318 19.1663 19.1658 18.5322 19.4352 17.7242L19.5298 17.4402C19.631 17.1368 19.5768 16.803 19.3849 16.5471L19.1705 16.2613C18.835 15.8139 18.3829 15.4675 17.8637 15.2598L17.8155 15.2405C17.2337 15.0078 16.5726 15.0952 16.0713 15.4712L15.5319 15.8757C14.2301 16.8521 12.4084 16.7226 11.2577 15.5719L8.4276 12.7418C7.27691 11.5912 7.14745 9.76946 8.12384 8.46761L8.52836 7.92825C8.90435 7.42693 8.99178 6.76586 8.75905 6.18403L8.73976 6.13581C8.53208 5.61661 8.18562 5.16453 7.73827 4.82902Z" fill="black"/>
</svg>
