<svg width="24" height="24" viewBox="0 0 24 24" fill="none" xmlns="http://www.w3.org/2000/svg">
<path fill-rule="evenodd" clip-rule="evenodd" d="M4.6875 10.5C4.6875 6.46142 7.96142 3.1875 12 3.1875C16.0386 3.1875 19.3125 6.46142 19.3125 10.5C19.3125 13.2965 18.1521 14.9427 16.7817 16.2224C16.2039 16.7619 15.634 17.197 15.0281 17.6597L15.0279 17.6598C14.8488 17.7965 14.6665 17.9357 14.4799 18.0807C14.1019 18.3744 13.6803 18.7139 13.308 19.0817C12.944 19.4412 12.5056 19.9438 12.2128 20.5976C12.1622 20.7108 12.1009 20.7724 12.0701 20.795C12.0573 20.8043 12.0508 20.8066 12.0486 20.8073L12.0485 20.8073C12.047 20.8079 12.0335 20.8125 12 20.8125C11.9665 20.8125 11.953 20.8079 11.9515 20.8073L11.9514 20.8073C11.9492 20.8066 11.9427 20.8043 11.9299 20.795C11.8991 20.7724 11.8378 20.7108 11.7872 20.5976C11.4944 19.9438 11.056 19.4412 10.692 19.0817C10.3197 18.7139 9.89805 18.3744 9.52009 18.0807C9.33352 17.9357 9.15123 17.7965 8.97209 17.6598L8.97195 17.6597C8.36599 17.197 7.7961 16.7619 7.21827 16.2224C5.84787 14.9427 4.6875 13.2965 4.6875 10.5ZM21.75 10.5C21.75 15.5986 18.6507 17.9626 16.4564 19.6364C15.5035 20.3632 14.7213 20.9599 14.4375 21.5938C14.0317 22.5 13.1825 23.25 12 23.25C10.8175 23.25 9.96828 22.5 9.5625 21.5938C9.27867 20.9599 8.49646 20.3632 7.54364 19.6364C5.34926 17.9626 2.25 15.5986 2.25 10.5C2.25 5.11522 6.61522 0.75 12 0.75C17.3848 0.75 21.75 5.11522 21.75 10.5ZM14.25 10.5C14.25 11.7426 13.2426 12.75 12 12.75C10.7574 12.75 9.75 11.7426 9.75 10.5C9.75 9.25736 10.7574 8.25 12 8.25C13.2426 8.25 14.25 9.25736 14.25 10.5ZM16.5 10.5C16.5 12.9853 14.4853 15 12 15C9.51472 15 7.5 12.9853 7.5 10.5C7.5 8.01472 9.51472 6 12 6C14.4853 6 16.5 8.01472 16.5 10.5Z" fill="black"/>
</svg>
