<svg width="42" height="42" viewBox="0 0 42 42" fill="none" xmlns="http://www.w3.org/2000/svg">
<path fill-rule="evenodd" clip-rule="evenodd" d="M16.4307 39.6603C19.3172 41.0554 22.6828 41.0554 25.5693 39.6603L25.9096 39.4957C27.7229 38.6193 28.875 36.7829 28.875 34.7689V33.5412C28.875 29.9925 30.9113 26.8292 32.9175 23.9019C34.5074 21.5821 35.4375 18.7747 35.4375 15.75C35.4375 7.77639 28.9736 1.3125 21 1.3125C13.0264 1.3125 6.5625 7.77639 6.5625 15.75C6.5625 18.7747 7.49264 21.5821 9.08249 23.9019C11.0887 26.8292 13.125 29.9925 13.125 33.5412V34.7689C13.125 36.7829 14.2771 38.6193 16.0904 39.4957L16.4307 39.6603ZM23.8558 36.1151L24.1962 35.9506C24.6495 35.7315 24.9375 35.2724 24.9375 34.7689V33.5412C24.9375 33.0966 24.9603 32.6586 25.0032 32.2275C22.3991 33.0075 19.6009 33.0075 16.9968 32.2275C17.0397 32.6586 17.0625 33.0966 17.0625 33.5412V34.7689C17.0625 35.2724 17.3505 35.7315 17.8038 35.9506L18.1442 36.1151C19.9482 36.9871 22.0518 36.9871 23.8558 36.1151ZM12.3304 21.676C13.3668 23.1882 14.6712 25.096 15.6479 27.3145C18.8712 29.3951 23.1287 29.3951 26.3521 27.3145C27.3288 25.096 28.6332 23.1882 29.6696 21.676C30.8246 19.9907 31.5 17.9552 31.5 15.75C31.5 9.95101 26.799 5.25 21 5.25C15.201 5.25 10.5 9.95101 10.5 15.75C10.5 17.9552 11.1754 19.9907 12.3304 21.676Z" fill="white"/>
<path d="M21 9.1875C19.9127 9.18748 19.0313 10.0689 19.0312 11.1562C19.0312 12.2435 19.9127 13.125 21 13.125C22.4497 13.125 23.6249 14.3003 23.6249 15.75C23.6249 16.8373 24.5064 17.7187 25.5937 17.7187C26.681 17.7187 27.5624 16.8373 27.5624 15.75C27.5624 12.1257 24.6243 9.18755 21 9.1875Z" fill="white"/>
</svg>
