<svg width="42" height="42" viewBox="0 0 42 42" fill="none" xmlns="http://www.w3.org/2000/svg">
<path fill-rule="evenodd" clip-rule="evenodd" d="M35.4375 14.3718V27.3551C35.4375 28.9964 34.4194 30.4656 32.8825 31.0419L20.3438 35.744V19.7624L35.4375 14.3718ZM33.7216 10.8035C33.5756 10.7038 33.4218 10.6132 33.2609 10.5327L24.9356 6.37004C23.9563 5.88039 22.8173 5.82061 21.7922 6.20506L9.11746 10.9581C8.90652 11.0372 8.70534 11.1331 8.51524 11.244L18.504 16.2384L33.7216 10.8035ZM6.5625 14.6699L16.4062 19.5917V35.3009L8.73909 31.4673C7.40513 30.8003 6.5625 29.4369 6.5625 27.9455V14.6699ZM3.32457 11.3995C2.87228 12.3988 2.625 13.5009 2.625 14.6449V27.9455C2.625 30.9283 4.31027 33.6551 6.97819 34.9891L15.3035 39.1517C17.2621 40.131 19.54 40.2506 21.5904 39.4817L34.2651 34.7287C37.3387 33.5761 39.375 30.6378 39.375 27.3551V14.0545C39.375 11.0717 37.6897 8.34485 35.0218 7.01089L26.6965 2.84824C24.7379 1.86893 22.46 1.74937 20.4096 2.51826L7.7349 7.27127C6.09232 7.88724 4.74601 9.01319 3.84842 10.4291C3.70645 10.573 3.5844 10.7414 3.4891 10.932C3.41317 11.0839 3.35871 11.2409 3.32457 11.3995Z" fill="white"/>
</svg>
