<svg width="42" height="42" viewBox="0 0 42 42" fill="none" xmlns="http://www.w3.org/2000/svg">
<path fill-rule="evenodd" clip-rule="evenodd" d="M17.5934 7.90994L21 9.18742V6.26317C21 2.59759 24.6612 0.0603726 28.0934 1.34744L36.8901 4.64621C39.9637 5.79882 42 8.73715 42 12.0198V22.6117C42 26.2773 38.3388 28.8145 34.9066 27.5274L31.5 26.2499V29.1742C31.5 32.8398 27.8388 35.377 24.4066 34.0899L21 32.8124V35.7368C21 39.4023 17.3388 41.9396 13.9066 40.6525L5.1099 37.3537C2.03626 36.2011 0 33.2628 0 29.9801V19.3883C0 15.7227 3.6612 13.1855 7.09339 14.4725L10.5 15.75V12.8257C10.5 9.16009 14.1612 6.62287 17.5934 7.90994ZM14.4375 17.2266L15.8901 17.7713C18.9637 18.9239 21 21.8622 21 25.1449V28.6072L25.7892 30.4031C26.6472 30.7249 27.5625 30.0906 27.5625 29.1742V18.5823C27.5625 16.941 26.5444 15.4718 25.0076 14.8955L16.2108 11.5967C15.3528 11.275 14.4375 11.9093 14.4375 12.8257V17.2266ZM26.3901 11.2087L24.9375 10.664V6.26317C24.9375 5.34677 25.8528 4.71247 26.7108 5.03424L35.5076 8.333C37.0444 8.90931 38.0625 10.3785 38.0625 12.0198V22.6117C38.0625 23.5281 37.1472 24.1624 36.2892 23.8406L31.5 22.0447V18.5823C31.5 15.2996 29.4637 12.3613 26.3901 11.2087ZM3.9375 29.9801V19.3883C3.9375 18.4719 4.8528 17.8376 5.71085 18.1593L14.5075 21.4581C16.0444 22.0344 17.0625 23.5036 17.0625 25.1449V35.7368C17.0625 36.6532 16.1472 37.2875 15.2892 36.9657L6.49245 33.6669C4.95563 33.0906 3.9375 31.6215 3.9375 29.9801Z" fill="white"/>
</svg>
