<svg width="42" height="42" viewBox="0 0 42 42" fill="none" xmlns="http://www.w3.org/2000/svg">
<path fill-rule="evenodd" clip-rule="evenodd" d="M11.9055 7.87494C12.4495 4.07266 15.3214 1.02141 19.0312 0.211449V4.5937C19.0312 5.68101 19.9126 6.56245 20.9999 6.56245C22.0873 6.56245 22.9687 5.68101 22.9687 4.5937V0.211426C26.6785 1.02135 29.5505 4.07263 30.0944 7.87494H30.8437C31.9311 7.87494 32.8125 8.75638 32.8125 9.84369C32.8125 10.931 31.9311 11.8124 30.8437 11.8124H30.1875C30.1875 16.8866 26.0741 20.9999 21 20.9999C15.9259 20.9999 11.8125 16.8866 11.8125 11.8124H11.1562C10.0689 11.8124 9.1875 10.931 9.1875 9.84369C9.1875 8.75638 10.0689 7.87494 11.1562 7.87494H11.9055ZM21 17.0624C18.1005 17.0624 15.75 14.7119 15.75 11.8124H26.25C26.25 14.7119 23.8995 17.0624 21 17.0624ZM6.5625 32.8124C6.5625 32.2755 7.14071 30.689 10.0263 28.9833C10.2154 28.8715 10.4106 28.7618 10.6116 28.6546L13.1552 35.4374H9.1875C7.73775 35.4374 6.5625 34.2622 6.5625 32.8124ZM17.3604 35.4374L14.2671 27.1884C16.2726 26.604 18.5566 26.2499 21 26.2499C23.4434 26.2499 25.7273 26.604 27.7329 27.1884L24.6396 35.4374H17.3604ZM28.8448 35.4374H32.8125C34.2622 35.4374 35.4375 34.2622 35.4375 32.8124C35.4375 32.2755 34.8593 30.689 31.9737 28.9833C31.7846 28.8715 31.5894 28.7618 31.3884 28.6546L28.8448 35.4374ZM21 22.3124C10.8937 22.3124 2.625 27.5624 2.625 32.8124C2.625 36.4368 5.56313 39.3749 9.1875 39.3749H32.8125C36.4369 39.3749 39.375 36.4368 39.375 32.8124C39.375 27.5624 31.1062 22.3124 21 22.3124Z" fill="white"/>
</svg>
