<svg width="205" height="205" viewBox="0 0 205 205" fill="none" xmlns="http://www.w3.org/2000/svg">
<rect width="205" height="205" fill="#22201E"/>
<path d="M176.57 80.8414C176.57 67.6958 166.322 57 153.719 57H108.748V60.3559H153.719C164.473 60.3559 173.226 69.5463 173.226 80.8414C173.226 92.1364 164.478 101.327 153.719 101.327H108.748V104.683H153.719C154.679 104.683 155.649 104.62 156.6 104.491L173.68 148.094H177L159.911 103.786C169.757 100.9 176.57 91.5851 176.57 80.8414Z" fill="white"/>
<path d="M77.2835 101.969C84.8081 97.8798 89.5665 89.8113 89.5665 80.8414C89.5665 67.6958 79.3187 57 66.7156 57H27V60.3559H66.7108C77.465 60.3559 86.2174 69.5463 86.2174 80.8414C86.2174 92.1364 77.637 101.106 67.0978 101.312H27.7166L27 101.327V104.683L71.9661 104.673C82.7203 104.673 91.4727 113.864 91.4727 125.159C91.4727 136.454 82.7251 145.644 71.9661 145.644H27V149H71.9661C84.5644 149 94.817 138.304 94.817 125.159C94.817 114.098 87.4166 104.505 77.2787 101.979L77.2835 101.969Z" fill="white"/>
</svg>
