<svg width="155" height="32" viewBox="0 0 155 32" fill="none" xmlns="http://www.w3.org/2000/svg">
<path d="M99.6218 15.3051H91.2752C87.5862 15.3051 84.5838 12.1635 84.5838 8.30237C84.5838 4.44126 87.5846 1.2996 91.2752 1.2996H107.133V0.154051H91.2752C86.9536 0.154051 83.4367 3.8103 83.4367 8.304C83.4367 12.7977 86.952 16.454 91.2752 16.454H99.6218C103.311 16.454 106.313 19.5956 106.313 23.4567C106.313 27.3178 103.313 30.4595 99.6218 30.4595H83.7644V31.6067H99.6218C103.943 31.6067 107.46 27.9504 107.46 23.4567C107.46 18.963 103.945 15.3068 99.6218 15.3068V15.3051Z" fill="white"/>
<path d="M51.3072 8.40397C51.3072 3.91027 47.7919 0.25402 43.4686 0.25402H28.0422V1.40121H43.4686C47.1576 1.40121 50.16 4.54287 50.16 8.40397C50.16 12.2651 47.1593 15.4067 43.4686 15.4067H28.0422V16.5539H43.4686C43.798 16.5539 44.1307 16.5326 44.4568 16.4884L50.3157 31.3936H51.4547L45.5925 16.2475C48.9702 15.2609 51.3072 12.0766 51.3072 8.40397Z" fill="white"/>
<path d="M17.2488 15.6263C19.83 14.2284 21.4623 11.4702 21.4623 8.40397C21.4623 3.91027 17.9469 0.25402 13.6237 0.25402H0V1.40121H13.622C17.3111 1.40121 20.3134 4.54287 20.3134 8.40397C20.3134 12.2651 17.3701 15.3314 13.7548 15.4018H0.245826L0 15.4067V16.5539L15.4248 16.5507C19.1138 16.5507 22.1162 19.6923 22.1162 23.5534C22.1162 27.4145 19.1154 30.5562 15.4248 30.5562H0V31.7034H15.4248C19.7464 31.7034 23.2633 28.0471 23.2633 23.5534C23.2633 19.7726 20.7248 16.4933 17.2472 15.6296L17.2488 15.6263Z" fill="white"/>
<path d="M77.917 20.9608C77.917 26.4148 73.2775 30.8528 67.576 30.8528C61.8744 30.8528 57.2349 26.4148 57.2349 20.9608V0.280242H56.0877V20.9608C56.0877 27.0474 61.2418 32 67.576 32C73.9101 32 79.0642 27.0474 79.0642 20.9608V0.280242H77.917V20.9608Z" fill="white"/>
<path d="M124.349 0.290075H123.049L111.753 15.8787L123.049 31.3936H124.35L113.149 15.8787L124.349 0.290075Z" fill="white"/>
<path d="M142.071 0L129.895 31.3936H131.033L142.071 2.65328L153.048 31.2363L153.109 31.3936H154.249L142.071 0Z" fill="white"/>
</svg>
